<svg width="32" height="32" viewBox="0 0 32 32" fill="none" xmlns="http://www.w3.org/2000/svg">
  <!-- Background circle with gradient -->
  <defs>
    <linearGradient id="bgGradient" x1="0%" y1="0%" x2="100%" y2="100%">
      <stop offset="0%" style="stop-color:#8b5cf6;stop-opacity:1" />
      <stop offset="100%" style="stop-color:#6366f1;stop-opacity:1" />
    </linearGradient>
    <linearGradient id="cardGradient" x1="0%" y1="0%" x2="100%" y2="100%">
      <stop offset="0%" style="stop-color:#ffffff;stop-opacity:1" />
      <stop offset="100%" style="stop-color:#f8fafc;stop-opacity:1" />
    </linearGradient>
  </defs>
  
  <!-- Background circle -->
  <circle cx="16" cy="16" r="16" fill="url(#bgGradient)"/>
  
  <!-- Kanban board representation -->
  <!-- Column 1 -->
  <rect x="6" y="10" width="5" height="12" rx="1.5" fill="url(#cardGradient)" opacity="0.9"/>
  <!-- Column 2 -->
  <rect x="13.5" y="8" width="5" height="12" rx="1.5" fill="url(#cardGradient)" opacity="0.8"/>
  <!-- Column 3 -->
  <rect x="21" y="11" width="5" height="12" rx="1.5" fill="url(#cardGradient)" opacity="0.7"/>
  
  <!-- Task cards -->
  <!-- Card 1 -->
  <rect x="7" y="11" width="3" height="2.5" rx="0.8" fill="#8b5cf6" opacity="0.6"/>
  <rect x="7" y="14" width="3" height="2.5" rx="0.8" fill="#6366f1" opacity="0.6"/>
  
  <!-- Card 2 -->
  <rect x="14.5" y="9" width="3" height="2.5" rx="0.8" fill="#8b5cf6" opacity="0.6"/>
  <rect x="14.5" y="12" width="3" height="2.5" rx="0.8" fill="#6366f1" opacity="0.6"/>
  <rect x="14.5" y="15" width="3" height="2.5" rx="0.8" fill="#8b5cf6" opacity="0.6"/>
  
  <!-- Card 3 -->
  <rect x="22" y="12" width="3" height="2.5" rx="0.8" fill="#6366f1" opacity="0.6"/>
  <rect x="22" y="15" width="3" height="2.5" rx="0.8" fill="#8b5cf6" opacity="0.6"/>
  <rect x="22" y="18" width="3" height="2.5" rx="0.8" fill="#6366f1" opacity="0.6"/>
  
  <!-- Connection lines to show flow -->
  <path d="M11 16 L13.5 16" stroke="#ffffff" stroke-width="0.8" opacity="0.4"/>
  <path d="M18.5 16 L21 16" stroke="#ffffff" stroke-width="0.8" opacity="0.4"/>
</svg>
